<svg width="392" height="220" viewBox="0 0 392 220" fill="none" xmlns="http://www.w3.org/2000/svg">
<rect width="392" height="220" fill="white"/>
<rect width="392" height="220" fill="url(#paint0_linear_1282_22972)" fill-opacity="0.4"/>
<circle cx="196" cy="110" r="100" fill="url(#paint1_linear_1282_22972)"/>
<path d="M176.057 31.985H173.262L172.573 34H170.792L174.068 24.835H175.381L178.657 34H176.785L176.057 31.985ZM173.717 30.555H175.667L174.991 28.527L174.718 27.097H174.653L174.38 28.54L173.717 30.555ZM183.492 29.086C183.223 28.9907 182.98 28.943 182.764 28.943C182.46 28.943 182.205 29.0253 181.997 29.19C181.797 29.346 181.663 29.5497 181.594 29.801V34H179.904V27.5H181.217L181.412 28.358H181.464C181.611 28.0373 181.81 27.7903 182.062 27.617C182.313 27.4437 182.608 27.357 182.946 27.357C183.171 27.357 183.427 27.4047 183.713 27.5L183.492 29.086ZM184.679 27.5H185.576V26.278L187.266 25.797V27.5H188.852V28.93H187.266V31.426C187.266 31.8767 187.309 32.2017 187.396 32.401C187.491 32.5917 187.664 32.687 187.916 32.687C188.089 32.687 188.236 32.6697 188.358 32.635C188.488 32.6003 188.631 32.5483 188.787 32.479L189.086 33.779C188.852 33.8917 188.579 33.987 188.267 34.065C187.955 34.143 187.638 34.182 187.318 34.182C186.72 34.182 186.278 34.0303 185.992 33.727C185.714 33.415 185.576 32.908 185.576 32.206V28.93H184.679V27.5ZM190.543 27.5H192.233V34H190.543V27.5ZM190.296 25.667C190.296 25.4157 190.387 25.2033 190.569 25.03C190.76 24.848 191.02 24.757 191.349 24.757C191.678 24.757 191.943 24.848 192.142 25.03C192.35 25.2033 192.454 25.4157 192.454 25.667C192.454 25.9183 192.35 26.1307 192.142 26.304C191.943 26.4687 191.678 26.551 191.349 26.551C191.02 26.551 190.76 26.4687 190.569 26.304C190.387 26.1307 190.296 25.9183 190.296 25.667ZM200.033 27.5V34H198.343V28.93H196.38V34H194.69V28.93H193.793V27.5H194.69V27.136C194.69 26.3127 194.903 25.7147 195.327 25.342C195.752 24.9607 196.367 24.77 197.173 24.77C197.771 24.77 198.3 24.8177 198.759 24.913C199.227 24.9997 199.604 25.1253 199.89 25.29L199.448 26.603C199.223 26.4817 198.95 26.3863 198.629 26.317C198.309 26.239 197.953 26.2 197.563 26.2C197.312 26.2 197.108 26.2303 196.952 26.291C196.796 26.343 196.675 26.4253 196.588 26.538C196.502 26.642 196.445 26.7763 196.419 26.941C196.393 27.1057 196.38 27.292 196.38 27.5H200.033ZM206.666 33.597C206.406 33.7877 206.089 33.9307 205.717 34.026C205.353 34.13 204.976 34.182 204.586 34.182C204.066 34.182 203.624 34.0997 203.26 33.935C202.904 33.7703 202.614 33.5407 202.389 33.246C202.163 32.9427 201.999 32.5787 201.895 32.154C201.799 31.7293 201.752 31.2613 201.752 30.75C201.752 29.6493 201.999 28.8043 202.493 28.215C202.987 27.617 203.706 27.318 204.651 27.318C205.127 27.318 205.509 27.357 205.795 27.435C206.089 27.513 206.354 27.6127 206.588 27.734L206.185 29.112C205.985 29.0167 205.786 28.943 205.587 28.891C205.396 28.839 205.175 28.813 204.924 28.813C204.456 28.813 204.1 28.969 203.858 29.281C203.615 29.5843 203.494 30.074 203.494 30.75C203.494 31.0273 203.524 31.283 203.585 31.517C203.645 31.751 203.736 31.9547 203.858 32.128C203.979 32.3013 204.135 32.44 204.326 32.544C204.525 32.6393 204.755 32.687 205.015 32.687C205.301 32.687 205.543 32.6523 205.743 32.583C205.942 32.505 206.12 32.414 206.276 32.31L206.666 33.597ZM208.344 27.5H210.034V34H208.344V27.5ZM208.097 25.667C208.097 25.4157 208.188 25.2033 208.37 25.03C208.56 24.848 208.82 24.757 209.15 24.757C209.479 24.757 209.743 24.848 209.943 25.03C210.151 25.2033 210.255 25.4157 210.255 25.667C210.255 25.9183 210.151 26.1307 209.943 26.304C209.743 26.4687 209.479 26.551 209.15 26.551C208.82 26.551 208.56 26.4687 208.37 26.304C208.188 26.1307 208.097 25.9183 208.097 25.667ZM212.14 27.877C212.487 27.721 212.898 27.5997 213.375 27.513C213.852 27.4177 214.35 27.37 214.87 27.37C215.321 27.37 215.698 27.4263 216.001 27.539C216.304 27.643 216.543 27.7947 216.716 27.994C216.898 28.1933 217.024 28.4317 217.093 28.709C217.171 28.9863 217.21 29.2983 217.21 29.645C217.21 30.0263 217.197 30.412 217.171 30.802C217.145 31.1833 217.128 31.5603 217.119 31.933C217.119 32.3057 217.132 32.6697 217.158 33.025C217.184 33.3717 217.249 33.701 217.353 34.013H215.975L215.702 33.116H215.637C215.464 33.3847 215.221 33.6187 214.909 33.818C214.606 34.0087 214.211 34.104 213.726 34.104C213.423 34.104 213.15 34.0607 212.907 33.974C212.664 33.8787 212.456 33.7487 212.283 33.584C212.11 33.4107 211.975 33.2113 211.88 32.986C211.785 32.752 211.737 32.492 211.737 32.206C211.737 31.8073 211.824 31.4737 211.997 31.205C212.179 30.9277 212.435 30.7067 212.764 30.542C213.102 30.3687 213.501 30.2517 213.96 30.191C214.428 30.1217 214.948 30.1 215.52 30.126C215.581 29.6407 215.546 29.294 215.416 29.086C215.286 28.8693 214.996 28.761 214.545 28.761C214.207 28.761 213.847 28.7957 213.466 28.865C213.093 28.9343 212.786 29.0253 212.543 29.138L212.14 27.877ZM214.285 32.713C214.623 32.713 214.892 32.6393 215.091 32.492C215.29 32.336 215.438 32.1713 215.533 31.998V31.153C215.264 31.127 215.004 31.1227 214.753 31.14C214.51 31.1573 214.294 31.1963 214.103 31.257C213.912 31.3177 213.761 31.4043 213.648 31.517C213.535 31.6297 213.479 31.7727 213.479 31.946C213.479 32.1887 213.548 32.3793 213.687 32.518C213.834 32.648 214.034 32.713 214.285 32.713ZM220.87 31.816C220.87 32.1193 220.909 32.3403 220.987 32.479C221.065 32.6177 221.191 32.687 221.364 32.687C221.468 32.687 221.568 32.6783 221.663 32.661C221.767 32.6437 221.893 32.6047 222.04 32.544L222.222 33.87C222.084 33.9393 221.871 34.0087 221.585 34.078C221.299 34.1473 221.005 34.182 220.701 34.182C220.207 34.182 219.83 34.0693 219.57 33.844C219.31 33.61 219.18 33.2287 219.18 32.7V24.9H220.87V31.816ZM149.06 40.9H150.841V50H149.06V40.9ZM157.024 50V46.308C157.024 45.7793 156.946 45.398 156.79 45.164C156.643 44.93 156.387 44.813 156.023 44.813C155.703 44.813 155.43 44.9083 155.204 45.099C154.988 45.281 154.832 45.5107 154.736 45.788V50H153.046V43.5H154.385L154.58 44.358H154.632C154.832 44.0807 155.096 43.838 155.425 43.63C155.755 43.422 156.179 43.318 156.699 43.318C157.02 43.318 157.306 43.3613 157.557 43.448C157.809 43.5347 158.021 43.6777 158.194 43.877C158.368 44.0763 158.498 44.3493 158.584 44.696C158.671 45.034 158.714 45.4543 158.714 45.957V50H157.024ZM159.954 43.5H160.851V42.278L162.541 41.797V43.5H164.127V44.93H162.541V47.426C162.541 47.8767 162.584 48.2017 162.671 48.401C162.766 48.5917 162.94 48.687 163.191 48.687C163.364 48.687 163.512 48.6697 163.633 48.635C163.763 48.6003 163.906 48.5483 164.062 48.479L164.361 49.779C164.127 49.8917 163.854 49.987 163.542 50.065C163.23 50.143 162.914 50.182 162.593 50.182C161.995 50.182 161.553 50.0303 161.267 49.727C160.99 49.415 160.851 48.908 160.851 48.206V44.93H159.954V43.5ZM170.799 49.441C170.539 49.649 170.184 49.8267 169.733 49.974C169.291 50.1127 168.819 50.182 168.316 50.182C167.267 50.182 166.5 49.8787 166.015 49.272C165.53 48.6567 165.287 47.816 165.287 46.75C165.287 45.606 165.56 44.748 166.106 44.176C166.652 43.604 167.419 43.318 168.407 43.318C168.736 43.318 169.057 43.3613 169.369 43.448C169.681 43.5347 169.958 43.6777 170.201 43.877C170.444 44.0763 170.639 44.345 170.786 44.683C170.933 45.021 171.007 45.4413 171.007 45.944C171.007 46.126 170.994 46.321 170.968 46.529C170.951 46.737 170.92 46.9537 170.877 47.179H166.977C167.003 47.725 167.142 48.1367 167.393 48.414C167.653 48.6913 168.069 48.83 168.641 48.83C168.996 48.83 169.313 48.778 169.59 48.674C169.876 48.5613 170.093 48.4487 170.24 48.336L170.799 49.441ZM168.381 44.67C167.939 44.67 167.61 44.8043 167.393 45.073C167.185 45.333 167.059 45.684 167.016 46.126H169.434C169.469 45.658 169.395 45.2983 169.213 45.047C169.04 44.7957 168.762 44.67 168.381 44.67ZM174.442 47.816C174.442 48.1193 174.481 48.3403 174.559 48.479C174.637 48.6177 174.763 48.687 174.936 48.687C175.04 48.687 175.14 48.6783 175.235 48.661C175.339 48.6437 175.465 48.6047 175.612 48.544L175.794 49.87C175.656 49.9393 175.443 50.0087 175.157 50.078C174.871 50.1473 174.577 50.182 174.273 50.182C173.779 50.182 173.402 50.0693 173.142 49.844C172.882 49.61 172.752 49.2287 172.752 48.7V40.9H174.442V47.816ZM178.764 47.816C178.764 48.1193 178.803 48.3403 178.881 48.479C178.959 48.6177 179.084 48.687 179.258 48.687C179.362 48.687 179.461 48.6783 179.557 48.661C179.661 48.6437 179.786 48.6047 179.934 48.544L180.116 49.87C179.977 49.9393 179.765 50.0087 179.479 50.078C179.193 50.1473 178.898 50.182 178.595 50.182C178.101 50.182 177.724 50.0693 177.464 49.844C177.204 49.61 177.074 49.2287 177.074 48.7V40.9H178.764V47.816ZM181.499 43.5H183.189V50H181.499V43.5ZM181.252 41.667C181.252 41.4157 181.343 41.2033 181.525 41.03C181.716 40.848 181.976 40.757 182.305 40.757C182.634 40.757 182.899 40.848 183.098 41.03C183.306 41.2033 183.41 41.4157 183.41 41.667C183.41 41.9183 183.306 42.1307 183.098 42.304C182.899 42.4687 182.634 42.551 182.305 42.551C181.976 42.551 181.716 42.4687 181.525 42.304C181.343 42.1307 181.252 41.9183 181.252 41.667ZM190.833 50C190.833 50.9447 190.578 51.638 190.066 52.08C189.555 52.5307 188.84 52.756 187.921 52.756C187.297 52.756 186.803 52.7127 186.439 52.626C186.084 52.5393 185.815 52.4483 185.633 52.353L185.984 51.014C186.184 51.092 186.413 51.17 186.673 51.248C186.942 51.326 187.271 51.365 187.661 51.365C188.251 51.365 188.649 51.235 188.857 50.975C189.074 50.7237 189.182 50.3683 189.182 49.909V49.493H189.13C188.827 49.9003 188.29 50.104 187.518 50.104C186.678 50.104 186.049 49.844 185.633 49.324C185.226 48.804 185.022 47.9893 185.022 46.88C185.022 45.7187 185.3 44.839 185.854 44.241C186.409 43.643 187.215 43.344 188.272 43.344C188.827 43.344 189.321 43.383 189.754 43.461C190.196 43.539 190.556 43.63 190.833 43.734V50ZM187.973 48.752C188.303 48.752 188.554 48.6783 188.727 48.531C188.909 48.3837 189.048 48.1627 189.143 47.868V44.943C188.875 44.8303 188.541 44.774 188.142 44.774C187.709 44.774 187.371 44.9387 187.128 45.268C186.886 45.5887 186.764 46.1043 186.764 46.815C186.764 47.4477 186.868 47.9287 187.076 48.258C187.284 48.5873 187.583 48.752 187.973 48.752ZM198.004 49.441C197.744 49.649 197.389 49.8267 196.938 49.974C196.496 50.1127 196.024 50.182 195.521 50.182C194.472 50.182 193.705 49.8787 193.22 49.272C192.735 48.6567 192.492 47.816 192.492 46.75C192.492 45.606 192.765 44.748 193.311 44.176C193.857 43.604 194.624 43.318 195.612 43.318C195.941 43.318 196.262 43.3613 196.574 43.448C196.886 43.5347 197.163 43.6777 197.406 43.877C197.649 44.0763 197.844 44.345 197.991 44.683C198.138 45.021 198.212 45.4413 198.212 45.944C198.212 46.126 198.199 46.321 198.173 46.529C198.156 46.737 198.125 46.9537 198.082 47.179H194.182C194.208 47.725 194.347 48.1367 194.598 48.414C194.858 48.6913 195.274 48.83 195.846 48.83C196.201 48.83 196.518 48.778 196.795 48.674C197.081 48.5613 197.298 48.4487 197.445 48.336L198.004 49.441ZM195.586 44.67C195.144 44.67 194.815 44.8043 194.598 45.073C194.39 45.333 194.264 45.684 194.221 46.126H196.639C196.674 45.658 196.6 45.2983 196.418 45.047C196.245 44.7957 195.967 44.67 195.586 44.67ZM203.884 50V46.308C203.884 45.7793 203.806 45.398 203.65 45.164C203.502 44.93 203.247 44.813 202.883 44.813C202.562 44.813 202.289 44.9083 202.064 45.099C201.847 45.281 201.691 45.5107 201.596 45.788V50H199.906V43.5H201.245L201.44 44.358H201.492C201.691 44.0807 201.955 43.838 202.285 43.63C202.614 43.422 203.039 43.318 203.559 43.318C203.879 43.318 204.165 43.3613 204.417 43.448C204.668 43.5347 204.88 43.6777 205.054 43.877C205.227 44.0763 205.357 44.3493 205.444 44.696C205.53 45.034 205.574 45.4543 205.574 45.957V50H203.884ZM212.092 49.597C211.832 49.7877 211.515 49.9307 211.143 50.026C210.779 50.13 210.402 50.182 210.012 50.182C209.492 50.182 209.05 50.0997 208.686 49.935C208.33 49.7703 208.04 49.5407 207.815 49.246C207.589 48.9427 207.425 48.5787 207.321 48.154C207.225 47.7293 207.178 47.2613 207.178 46.75C207.178 45.6493 207.425 44.8043 207.919 44.215C208.413 43.617 209.132 43.318 210.077 43.318C210.553 43.318 210.935 43.357 211.221 43.435C211.515 43.513 211.78 43.6127 212.014 43.734L211.611 45.112C211.411 45.0167 211.212 44.943 211.013 44.891C210.822 44.839 210.601 44.813 210.35 44.813C209.882 44.813 209.526 44.969 209.284 45.281C209.041 45.5843 208.92 46.074 208.92 46.75C208.92 47.0273 208.95 47.283 209.011 47.517C209.071 47.751 209.162 47.9547 209.284 48.128C209.405 48.3013 209.561 48.44 209.752 48.544C209.951 48.6393 210.181 48.687 210.441 48.687C210.727 48.687 210.969 48.6523 211.169 48.583C211.368 48.505 211.546 48.414 211.702 48.31L212.092 49.597ZM218.598 49.441C218.338 49.649 217.982 49.8267 217.532 49.974C217.09 50.1127 216.617 50.182 216.115 50.182C215.066 50.182 214.299 49.8787 213.814 49.272C213.328 48.6567 213.086 47.816 213.086 46.75C213.086 45.606 213.359 44.748 213.905 44.176C214.451 43.604 215.218 43.318 216.206 43.318C216.535 43.318 216.856 43.3613 217.168 43.448C217.48 43.5347 217.757 43.6777 218 43.877C218.242 44.0763 218.437 44.345 218.585 44.683C218.732 45.021 218.806 45.4413 218.806 45.944C218.806 46.126 218.793 46.321 218.767 46.529C218.749 46.737 218.719 46.9537 218.676 47.179H214.776C214.802 47.725 214.94 48.1367 215.192 48.414C215.452 48.6913 215.868 48.83 216.44 48.83C216.795 48.83 217.111 48.778 217.389 48.674C217.675 48.5613 217.891 48.4487 218.039 48.336L218.598 49.441ZM216.18 44.67C215.738 44.67 215.408 44.8043 215.192 45.073C214.984 45.333 214.858 45.684 214.815 46.126H217.233C217.267 45.658 217.194 45.2983 217.012 45.047C216.838 44.7957 216.561 44.67 216.18 44.67ZM226.497 52.86C226.099 52.444 225.761 51.9847 225.483 51.482C225.206 50.988 224.981 50.481 224.807 49.961C224.643 49.4323 224.521 48.9037 224.443 48.375C224.365 47.8377 224.326 47.3263 224.326 46.841C224.326 46.3643 224.365 45.8617 224.443 45.333C224.521 44.8043 224.647 44.2757 224.82 43.747C224.994 43.2097 225.219 42.6853 225.496 42.174C225.782 41.6627 226.129 41.186 226.536 40.744L227.628 41.446C227.325 41.8533 227.069 42.278 226.861 42.72C226.662 43.162 226.497 43.617 226.367 44.085C226.246 44.5443 226.155 45.008 226.094 45.476C226.042 45.944 226.016 46.399 226.016 46.841C226.016 47.257 226.047 47.699 226.107 48.167C226.168 48.635 226.263 49.103 226.393 49.571C226.523 50.0303 226.692 50.481 226.9 50.923C227.108 51.365 227.36 51.768 227.654 52.132L226.497 52.86ZM233.348 47.985H230.553L229.864 50H228.083L231.359 40.835H232.672L235.948 50H234.076L233.348 47.985ZM231.008 46.555H232.958L232.282 44.527L232.009 43.097H231.944L231.671 44.54L231.008 46.555ZM237.417 40.9H239.198V50H237.417V40.9ZM241.949 40.744C242.347 41.16 242.685 41.6193 242.963 42.122C243.24 42.616 243.461 43.1273 243.626 43.656C243.799 44.176 243.925 44.7047 244.003 45.242C244.081 45.7707 244.12 46.2777 244.12 46.763C244.12 47.2397 244.081 47.7423 244.003 48.271C243.925 48.7997 243.799 49.3327 243.626 49.87C243.452 50.3987 243.223 50.9187 242.937 51.43C242.659 51.9413 242.317 52.418 241.91 52.86L240.818 52.145C241.138 51.7117 241.403 51.2697 241.611 50.819C241.819 50.377 241.983 49.9307 242.105 49.48C242.226 49.0207 242.308 48.5657 242.352 48.115C242.404 47.6557 242.43 47.205 242.43 46.763C242.43 46.347 242.395 45.9093 242.326 45.45C242.265 44.982 242.17 44.5183 242.04 44.059C241.91 43.591 241.741 43.1403 241.533 42.707C241.333 42.265 241.091 41.8577 240.805 41.485L241.949 40.744Z" fill="white"/>
<ellipse cx="208.5" cy="131" rx="69.5" ry="69" fill="url(#paint2_linear_1282_22972)"/>
<path d="M191.973 87.281L192.168 85.474H192.09L191.531 86.93L189.594 90.323H189.022L186.981 86.917L186.409 85.474H186.344L186.604 87.268V92H184.914V82.9H186.539L188.97 87.06L189.399 88.1H189.451L189.841 87.034L192.142 82.9H193.754V92H191.973V87.281ZM195.734 85.877C196.08 85.721 196.492 85.5997 196.969 85.513C197.445 85.4177 197.944 85.37 198.464 85.37C198.914 85.37 199.291 85.4263 199.595 85.539C199.898 85.643 200.136 85.7947 200.31 85.994C200.492 86.1933 200.617 86.4317 200.687 86.709C200.765 86.9863 200.804 87.2983 200.804 87.645C200.804 88.0263 200.791 88.412 200.765 88.802C200.739 89.1833 200.721 89.5603 200.713 89.933C200.713 90.3057 200.726 90.6697 200.752 91.025C200.778 91.3717 200.843 91.701 200.947 92.013H199.569L199.296 91.116H199.231C199.057 91.3847 198.815 91.6187 198.503 91.818C198.199 92.0087 197.805 92.104 197.32 92.104C197.016 92.104 196.743 92.0607 196.501 91.974C196.258 91.8787 196.05 91.7487 195.877 91.584C195.703 91.4107 195.569 91.2113 195.474 90.986C195.378 90.752 195.331 90.492 195.331 90.206C195.331 89.8073 195.417 89.4737 195.591 89.205C195.773 88.9277 196.028 88.7067 196.358 88.542C196.696 88.3687 197.094 88.2517 197.554 88.191C198.022 88.1217 198.542 88.1 199.114 88.126C199.174 87.6407 199.14 87.294 199.01 87.086C198.88 86.8693 198.589 86.761 198.139 86.761C197.801 86.761 197.441 86.7957 197.06 86.865C196.687 86.9343 196.379 87.0253 196.137 87.138L195.734 85.877ZM197.879 90.713C198.217 90.713 198.485 90.6393 198.685 90.492C198.884 90.336 199.031 90.1713 199.127 89.998V89.153C198.858 89.127 198.598 89.1227 198.347 89.14C198.104 89.1573 197.887 89.1963 197.697 89.257C197.506 89.3177 197.354 89.4043 197.242 89.517C197.129 89.6297 197.073 89.7727 197.073 89.946C197.073 90.1887 197.142 90.3793 197.281 90.518C197.428 90.648 197.627 90.713 197.879 90.713ZM207.324 91.597C207.064 91.7877 206.748 91.9307 206.375 92.026C206.011 92.13 205.634 92.182 205.244 92.182C204.724 92.182 204.282 92.0997 203.918 91.935C203.563 91.7703 203.272 91.5407 203.047 91.246C202.822 90.9427 202.657 90.5787 202.553 90.154C202.458 89.7293 202.41 89.2613 202.41 88.75C202.41 87.6493 202.657 86.8043 203.151 86.215C203.645 85.617 204.364 85.318 205.309 85.318C205.786 85.318 206.167 85.357 206.453 85.435C206.748 85.513 207.012 85.6127 207.246 85.734L206.843 87.112C206.644 87.0167 206.444 86.943 206.245 86.891C206.054 86.839 205.833 86.813 205.582 86.813C205.114 86.813 204.759 86.969 204.516 87.281C204.273 87.5843 204.152 88.074 204.152 88.75C204.152 89.0273 204.182 89.283 204.243 89.517C204.304 89.751 204.395 89.9547 204.516 90.128C204.637 90.3013 204.793 90.44 204.984 90.544C205.183 90.6393 205.413 90.687 205.673 90.687C205.959 90.687 206.202 90.6523 206.401 90.583C206.6 90.505 206.778 90.414 206.934 90.31L207.324 91.597ZM212.824 92V88.308C212.824 87.7793 212.75 87.398 212.603 87.164C212.456 86.93 212.187 86.813 211.797 86.813C211.511 86.813 211.247 86.9127 211.004 87.112C210.77 87.3027 210.614 87.5497 210.536 87.853V92H208.846V82.9H210.536V86.228H210.588C210.796 85.9507 211.052 85.7297 211.355 85.565C211.658 85.4003 212.044 85.318 212.512 85.318C212.841 85.318 213.132 85.3613 213.383 85.448C213.634 85.5347 213.842 85.6777 214.007 85.877C214.18 86.0763 214.306 86.3493 214.384 86.696C214.471 87.034 214.514 87.4543 214.514 87.957V92H212.824ZM216.586 85.5H218.276V92H216.586V85.5ZM216.339 83.667C216.339 83.4157 216.43 83.2033 216.612 83.03C216.803 82.848 217.063 82.757 217.392 82.757C217.721 82.757 217.986 82.848 218.185 83.03C218.393 83.2033 218.497 83.4157 218.497 83.667C218.497 83.9183 218.393 84.1307 218.185 84.304C217.986 84.4687 217.721 84.551 217.392 84.551C217.063 84.551 216.803 84.4687 216.612 84.304C216.43 84.1307 216.339 83.9183 216.339 83.667ZM224.399 92V88.308C224.399 87.7793 224.321 87.398 224.165 87.164C224.018 86.93 223.762 86.813 223.398 86.813C223.078 86.813 222.805 86.9083 222.579 87.099C222.363 87.281 222.207 87.5107 222.111 87.788V92H220.421V85.5H221.76L221.955 86.358H222.007C222.207 86.0807 222.471 85.838 222.8 85.63C223.13 85.422 223.554 85.318 224.074 85.318C224.395 85.318 224.681 85.3613 224.932 85.448C225.184 85.5347 225.396 85.6777 225.569 85.877C225.743 86.0763 225.873 86.3493 225.959 86.696C226.046 87.034 226.089 87.4543 226.089 87.957V92H224.399ZM233.205 91.441C232.945 91.649 232.59 91.8267 232.139 91.974C231.697 92.1127 231.225 92.182 230.722 92.182C229.673 92.182 228.906 91.8787 228.421 91.272C227.936 90.6567 227.693 89.816 227.693 88.75C227.693 87.606 227.966 86.748 228.512 86.176C229.058 85.604 229.825 85.318 230.813 85.318C231.142 85.318 231.463 85.3613 231.775 85.448C232.087 85.5347 232.364 85.6777 232.607 85.877C232.85 86.0763 233.045 86.345 233.192 86.683C233.339 87.021 233.413 87.4413 233.413 87.944C233.413 88.126 233.4 88.321 233.374 88.529C233.357 88.737 233.326 88.9537 233.283 89.179H229.383C229.409 89.725 229.548 90.1367 229.799 90.414C230.059 90.6913 230.475 90.83 231.047 90.83C231.402 90.83 231.719 90.778 231.996 90.674C232.282 90.5613 232.499 90.4487 232.646 90.336L233.205 91.441ZM230.787 86.67C230.345 86.67 230.016 86.8043 229.799 87.073C229.591 87.333 229.465 87.684 229.422 88.126H231.84C231.875 87.658 231.801 87.2983 231.619 87.047C231.446 86.7957 231.168 86.67 230.787 86.67ZM173.882 108H168.123V98.9H169.904V106.414H173.882V108ZM180.004 107.441C179.744 107.649 179.389 107.827 178.938 107.974C178.496 108.113 178.024 108.182 177.521 108.182C176.473 108.182 175.706 107.879 175.22 107.272C174.735 106.657 174.492 105.816 174.492 104.75C174.492 103.606 174.765 102.748 175.311 102.176C175.857 101.604 176.624 101.318 177.612 101.318C177.942 101.318 178.262 101.361 178.574 101.448C178.886 101.535 179.164 101.678 179.406 101.877C179.649 102.076 179.844 102.345 179.991 102.683C180.139 103.021 180.212 103.441 180.212 103.944C180.212 104.126 180.199 104.321 180.173 104.529C180.156 104.737 180.126 104.954 180.082 105.179H176.182C176.208 105.725 176.347 106.137 176.598 106.414C176.858 106.691 177.274 106.83 177.846 106.83C178.202 106.83 178.518 106.778 178.795 106.674C179.081 106.561 179.298 106.449 179.445 106.336L180.004 107.441ZM177.586 102.67C177.144 102.67 176.815 102.804 176.598 103.073C176.39 103.333 176.265 103.684 176.221 104.126H178.639C178.674 103.658 178.6 103.298 178.418 103.047C178.245 102.796 177.968 102.67 177.586 102.67ZM181.867 101.877C182.214 101.721 182.625 101.6 183.102 101.513C183.579 101.418 184.077 101.37 184.597 101.37C185.048 101.37 185.425 101.426 185.728 101.539C186.031 101.643 186.27 101.795 186.443 101.994C186.625 102.193 186.751 102.432 186.82 102.709C186.898 102.986 186.937 103.298 186.937 103.645C186.937 104.026 186.924 104.412 186.898 104.802C186.872 105.183 186.855 105.56 186.846 105.933C186.846 106.306 186.859 106.67 186.885 107.025C186.911 107.372 186.976 107.701 187.08 108.013H185.702L185.429 107.116H185.364C185.191 107.385 184.948 107.619 184.636 107.818C184.333 108.009 183.938 108.104 183.453 108.104C183.15 108.104 182.877 108.061 182.634 107.974C182.391 107.879 182.183 107.749 182.01 107.584C181.837 107.411 181.702 107.211 181.607 106.986C181.512 106.752 181.464 106.492 181.464 106.206C181.464 105.807 181.551 105.474 181.724 105.205C181.906 104.928 182.162 104.707 182.491 104.542C182.829 104.369 183.228 104.252 183.687 104.191C184.155 104.122 184.675 104.1 185.247 104.126C185.308 103.641 185.273 103.294 185.143 103.086C185.013 102.869 184.723 102.761 184.272 102.761C183.934 102.761 183.574 102.796 183.193 102.865C182.82 102.934 182.513 103.025 182.27 103.138L181.867 101.877ZM184.012 106.713C184.35 106.713 184.619 106.639 184.818 106.492C185.017 106.336 185.165 106.171 185.26 105.998V105.153C184.991 105.127 184.731 105.123 184.48 105.14C184.237 105.157 184.021 105.196 183.83 105.257C183.639 105.318 183.488 105.404 183.375 105.517C183.262 105.63 183.206 105.773 183.206 105.946C183.206 106.189 183.275 106.379 183.414 106.518C183.561 106.648 183.761 106.713 184.012 106.713ZM192.443 103.086C192.175 102.991 191.932 102.943 191.715 102.943C191.412 102.943 191.156 103.025 190.948 103.19C190.749 103.346 190.615 103.55 190.545 103.801V108H188.855V101.5H190.168L190.363 102.358H190.415C190.563 102.037 190.762 101.79 191.013 101.617C191.265 101.444 191.559 101.357 191.897 101.357C192.123 101.357 192.378 101.405 192.664 101.5L192.443 103.086ZM197.891 108V104.308C197.891 103.779 197.813 103.398 197.657 103.164C197.51 102.93 197.254 102.813 196.89 102.813C196.569 102.813 196.296 102.908 196.071 103.099C195.854 103.281 195.698 103.511 195.603 103.788V108H193.913V101.5H195.252L195.447 102.358H195.499C195.698 102.081 195.963 101.838 196.292 101.63C196.621 101.422 197.046 101.318 197.566 101.318C197.887 101.318 198.173 101.361 198.424 101.448C198.675 101.535 198.888 101.678 199.061 101.877C199.234 102.076 199.364 102.349 199.451 102.696C199.538 103.034 199.581 103.454 199.581 103.957V108H197.891ZM201.653 101.5H203.343V108H201.653V101.5ZM201.406 99.667C201.406 99.4157 201.497 99.2033 201.679 99.03C201.87 98.848 202.13 98.757 202.459 98.757C202.788 98.757 203.053 98.848 203.252 99.03C203.46 99.2033 203.564 99.4157 203.564 99.667C203.564 99.9183 203.46 100.131 203.252 100.304C203.053 100.469 202.788 100.551 202.459 100.551C202.13 100.551 201.87 100.469 201.679 100.304C201.497 100.131 201.406 99.9183 201.406 99.667ZM209.466 108V104.308C209.466 103.779 209.388 103.398 209.232 103.164C209.085 102.93 208.829 102.813 208.465 102.813C208.144 102.813 207.871 102.908 207.646 103.099C207.429 103.281 207.273 103.511 207.178 103.788V108H205.488V101.5H206.827L207.022 102.358H207.074C207.273 102.081 207.538 101.838 207.867 101.63C208.196 101.422 208.621 101.318 209.141 101.318C209.462 101.318 209.748 101.361 209.999 101.448C210.25 101.535 210.463 101.678 210.636 101.877C210.809 102.076 210.939 102.349 211.026 102.696C211.113 103.034 211.156 103.454 211.156 103.957V108H209.466ZM218.571 108C218.571 108.945 218.315 109.638 217.804 110.08C217.293 110.531 216.578 110.756 215.659 110.756C215.035 110.756 214.541 110.713 214.177 110.626C213.822 110.539 213.553 110.448 213.371 110.353L213.722 109.014C213.921 109.092 214.151 109.17 214.411 109.248C214.68 109.326 215.009 109.365 215.399 109.365C215.988 109.365 216.387 109.235 216.595 108.975C216.812 108.724 216.92 108.368 216.92 107.909V107.493H216.868C216.565 107.9 216.027 108.104 215.256 108.104C214.415 108.104 213.787 107.844 213.371 107.324C212.964 106.804 212.76 105.989 212.76 104.88C212.76 103.719 213.037 102.839 213.592 102.241C214.147 101.643 214.953 101.344 216.01 101.344C216.565 101.344 217.059 101.383 217.492 101.461C217.934 101.539 218.294 101.63 218.571 101.734V108ZM215.711 106.752C216.04 106.752 216.292 106.678 216.465 106.531C216.647 106.384 216.786 106.163 216.881 105.868V102.943C216.612 102.83 216.279 102.774 215.88 102.774C215.447 102.774 215.109 102.939 214.866 103.268C214.623 103.589 214.502 104.104 214.502 104.815C214.502 105.448 214.606 105.929 214.814 106.258C215.022 106.587 215.321 106.752 215.711 106.752ZM226.54 110.86C226.141 110.444 225.803 109.985 225.526 109.482C225.249 108.988 225.023 108.481 224.85 107.961C224.685 107.432 224.564 106.904 224.486 106.375C224.408 105.838 224.369 105.326 224.369 104.841C224.369 104.364 224.408 103.862 224.486 103.333C224.564 102.804 224.69 102.276 224.863 101.747C225.036 101.21 225.262 100.685 225.539 100.174C225.825 99.6627 226.172 99.186 226.579 98.744L227.671 99.446C227.368 99.8533 227.112 100.278 226.904 100.72C226.705 101.162 226.54 101.617 226.41 102.085C226.289 102.544 226.198 103.008 226.137 103.476C226.085 103.944 226.059 104.399 226.059 104.841C226.059 105.257 226.089 105.699 226.15 106.167C226.211 106.635 226.306 107.103 226.436 107.571C226.566 108.03 226.735 108.481 226.943 108.923C227.151 109.365 227.402 109.768 227.697 110.132L226.54 110.86ZM236.181 103.281L236.376 101.474H236.298L235.739 102.93L233.802 106.323H233.23L231.189 102.917L230.617 101.474H230.552L230.812 103.268V108H229.122V98.9H230.747L233.178 103.06L233.607 104.1H233.659L234.049 103.034L236.35 98.9H237.962V108H236.181V103.281ZM245.778 108H240.019V98.9H241.8V106.414H245.778V108ZM247.704 98.744C248.103 99.16 248.441 99.6193 248.718 100.122C248.995 100.616 249.216 101.127 249.381 101.656C249.554 102.176 249.68 102.705 249.758 103.242C249.836 103.771 249.875 104.278 249.875 104.763C249.875 105.24 249.836 105.742 249.758 106.271C249.68 106.8 249.554 107.333 249.381 107.87C249.208 108.399 248.978 108.919 248.692 109.43C248.415 109.941 248.072 110.418 247.665 110.86L246.573 110.145C246.894 109.712 247.158 109.27 247.366 108.819C247.574 108.377 247.739 107.931 247.86 107.48C247.981 107.021 248.064 106.566 248.107 106.115C248.159 105.656 248.185 105.205 248.185 104.763C248.185 104.347 248.15 103.909 248.081 103.45C248.02 102.982 247.925 102.518 247.795 102.059C247.665 101.591 247.496 101.14 247.288 100.707C247.089 100.265 246.846 99.8577 246.56 99.485L247.704 98.744Z" fill="white"/>
<ellipse cx="219.5" cy="156" rx="36.5" ry="37" fill="url(#paint3_linear_1282_22972)"/>
<path d="M204.991 134.9C205.173 134.874 205.377 134.852 205.602 134.835C205.836 134.818 206.075 134.805 206.317 134.796C206.56 134.787 206.794 134.783 207.019 134.783C207.253 134.774 207.461 134.77 207.643 134.77C208.449 134.77 209.138 134.883 209.71 135.108C210.282 135.333 210.746 135.65 211.101 136.057C211.457 136.464 211.717 136.95 211.881 137.513C212.046 138.076 212.128 138.696 212.128 139.372C212.128 139.987 212.05 140.581 211.894 141.153C211.738 141.725 211.478 142.232 211.114 142.674C210.75 143.116 210.269 143.471 209.671 143.74C209.082 144.009 208.35 144.143 207.474 144.143C207.336 144.143 207.149 144.139 206.915 144.13C206.69 144.121 206.452 144.108 206.2 144.091C205.958 144.082 205.724 144.069 205.498 144.052C205.273 144.043 205.104 144.03 204.991 144.013V134.9ZM207.786 136.356C207.596 136.356 207.401 136.36 207.201 136.369C207.011 136.378 206.868 136.391 206.772 136.408V142.505C206.807 142.514 206.863 142.522 206.941 142.531C207.028 142.531 207.119 142.535 207.214 142.544C207.31 142.544 207.401 142.548 207.487 142.557C207.574 142.557 207.639 142.557 207.682 142.557C208.185 142.557 208.601 142.47 208.93 142.297C209.268 142.115 209.533 141.877 209.723 141.582C209.923 141.287 210.061 140.949 210.139 140.568C210.217 140.178 210.256 139.779 210.256 139.372C210.256 139.017 210.222 138.661 210.152 138.306C210.083 137.942 209.953 137.617 209.762 137.331C209.58 137.045 209.329 136.811 209.008 136.629C208.688 136.447 208.28 136.356 207.786 136.356ZM219.069 143.441C218.809 143.649 218.454 143.827 218.003 143.974C217.561 144.113 217.089 144.182 216.586 144.182C215.538 144.182 214.771 143.879 214.285 143.272C213.8 142.657 213.557 141.816 213.557 140.75C213.557 139.606 213.83 138.748 214.376 138.176C214.922 137.604 215.689 137.318 216.677 137.318C217.007 137.318 217.327 137.361 217.639 137.448C217.951 137.535 218.229 137.678 218.471 137.877C218.714 138.076 218.909 138.345 219.056 138.683C219.204 139.021 219.277 139.441 219.277 139.944C219.277 140.126 219.264 140.321 219.238 140.529C219.221 140.737 219.191 140.954 219.147 141.179H215.247C215.273 141.725 215.412 142.137 215.663 142.414C215.923 142.691 216.339 142.83 216.911 142.83C217.267 142.83 217.583 142.778 217.86 142.674C218.146 142.561 218.363 142.449 218.51 142.336L219.069 143.441ZM216.651 138.67C216.209 138.67 215.88 138.804 215.663 139.073C215.455 139.333 215.33 139.684 215.286 140.126H217.704C217.739 139.658 217.665 139.298 217.483 139.047C217.31 138.796 217.033 138.67 216.651 138.67ZM226.108 143.441C225.848 143.649 225.492 143.827 225.042 143.974C224.6 144.113 224.127 144.182 223.625 144.182C222.576 144.182 221.809 143.879 221.324 143.272C220.838 142.657 220.596 141.816 220.596 140.75C220.596 139.606 220.869 138.748 221.415 138.176C221.961 137.604 222.728 137.318 223.716 137.318C224.045 137.318 224.366 137.361 224.678 137.448C224.99 137.535 225.267 137.678 225.51 137.877C225.752 138.076 225.947 138.345 226.095 138.683C226.242 139.021 226.316 139.441 226.316 139.944C226.316 140.126 226.303 140.321 226.277 140.529C226.259 140.737 226.229 140.954 226.186 141.179H222.286C222.312 141.725 222.45 142.137 222.702 142.414C222.962 142.691 223.378 142.83 223.95 142.83C224.305 142.83 224.621 142.778 224.899 142.674C225.185 142.561 225.401 142.449 225.549 142.336L226.108 143.441ZM223.69 138.67C223.248 138.67 222.918 138.804 222.702 139.073C222.494 139.333 222.368 139.684 222.325 140.126H224.743C224.777 139.658 224.704 139.298 224.522 139.047C224.348 138.796 224.071 138.67 223.69 138.67ZM228.009 137.5H229.244L229.439 138.28H229.491C229.716 137.951 229.981 137.708 230.284 137.552C230.596 137.396 230.973 137.318 231.415 137.318C232.23 137.318 232.841 137.578 233.248 138.098C233.655 138.609 233.859 139.437 233.859 140.581C233.859 141.136 233.794 141.638 233.664 142.089C233.534 142.531 233.339 142.908 233.079 143.22C232.828 143.532 232.516 143.77 232.143 143.935C231.779 144.1 231.359 144.182 230.882 144.182C230.613 144.182 230.392 144.16 230.219 144.117C230.046 144.082 229.872 144.022 229.699 143.935V146.6H228.009V137.5ZM230.908 138.748C230.579 138.748 230.319 138.83 230.128 138.995C229.946 139.16 229.803 139.407 229.699 139.736V142.44C229.82 142.535 229.95 142.613 230.089 142.674C230.236 142.726 230.427 142.752 230.661 142.752C231.146 142.752 231.51 142.583 231.753 142.245C231.996 141.898 232.117 141.331 232.117 140.542C232.117 139.97 232.022 139.528 231.831 139.216C231.64 138.904 231.333 138.748 230.908 138.748ZM200.06 160H194.301V150.9H196.082V158.414H200.06V160ZM206.183 159.441C205.923 159.649 205.567 159.827 205.117 159.974C204.675 160.113 204.202 160.182 203.7 160.182C202.651 160.182 201.884 159.879 201.399 159.272C200.913 158.657 200.671 157.816 200.671 156.75C200.671 155.606 200.944 154.748 201.49 154.176C202.036 153.604 202.803 153.318 203.791 153.318C204.12 153.318 204.441 153.361 204.753 153.448C205.065 153.535 205.342 153.678 205.585 153.877C205.827 154.076 206.022 154.345 206.17 154.683C206.317 155.021 206.391 155.441 206.391 155.944C206.391 156.126 206.378 156.321 206.352 156.529C206.334 156.737 206.304 156.954 206.261 157.179H202.361C202.387 157.725 202.525 158.137 202.777 158.414C203.037 158.691 203.453 158.83 204.025 158.83C204.38 158.83 204.696 158.778 204.974 158.674C205.26 158.561 205.476 158.449 205.624 158.336L206.183 159.441ZM203.765 154.67C203.323 154.67 202.993 154.804 202.777 155.073C202.569 155.333 202.443 155.684 202.4 156.126H204.818C204.852 155.658 204.779 155.298 204.597 155.047C204.423 154.796 204.146 154.67 203.765 154.67ZM208.045 153.877C208.392 153.721 208.804 153.6 209.28 153.513C209.757 153.418 210.255 153.37 210.775 153.37C211.226 153.37 211.603 153.426 211.906 153.539C212.21 153.643 212.448 153.795 212.621 153.994C212.803 154.193 212.929 154.432 212.998 154.709C213.076 154.986 213.115 155.298 213.115 155.645C213.115 156.026 213.102 156.412 213.076 156.802C213.05 157.183 213.033 157.56 213.024 157.933C213.024 158.306 213.037 158.67 213.063 159.025C213.089 159.372 213.154 159.701 213.258 160.013H211.88L211.607 159.116H211.542C211.369 159.385 211.126 159.619 210.814 159.818C210.511 160.009 210.117 160.104 209.631 160.104C209.328 160.104 209.055 160.061 208.812 159.974C208.57 159.879 208.362 159.749 208.188 159.584C208.015 159.411 207.881 159.211 207.785 158.986C207.69 158.752 207.642 158.492 207.642 158.206C207.642 157.807 207.729 157.474 207.902 157.205C208.084 156.928 208.34 156.707 208.669 156.542C209.007 156.369 209.406 156.252 209.865 156.191C210.333 156.122 210.853 156.1 211.425 156.126C211.486 155.641 211.451 155.294 211.321 155.086C211.191 154.869 210.901 154.761 210.45 154.761C210.112 154.761 209.753 154.796 209.371 154.865C208.999 154.934 208.691 155.025 208.448 155.138L208.045 153.877ZM210.19 158.713C210.528 158.713 210.797 158.639 210.996 158.492C211.196 158.336 211.343 158.171 211.438 157.998V157.153C211.17 157.127 210.91 157.123 210.658 157.14C210.416 157.157 210.199 157.196 210.008 157.257C209.818 157.318 209.666 157.404 209.553 157.517C209.441 157.63 209.384 157.773 209.384 157.946C209.384 158.189 209.454 158.379 209.592 158.518C209.74 158.648 209.939 158.713 210.19 158.713ZM218.621 155.086C218.353 154.991 218.11 154.943 217.893 154.943C217.59 154.943 217.334 155.025 217.126 155.19C216.927 155.346 216.793 155.55 216.723 155.801V160H215.033V153.5H216.346L216.541 154.358H216.593C216.741 154.037 216.94 153.79 217.191 153.617C217.443 153.444 217.737 153.357 218.075 153.357C218.301 153.357 218.556 153.405 218.842 153.5L218.621 155.086ZM224.069 160V156.308C224.069 155.779 223.991 155.398 223.835 155.164C223.688 154.93 223.432 154.813 223.068 154.813C222.747 154.813 222.474 154.908 222.249 155.099C222.032 155.281 221.876 155.511 221.781 155.788V160H220.091V153.5H221.43L221.625 154.358H221.677C221.876 154.081 222.141 153.838 222.47 153.63C222.799 153.422 223.224 153.318 223.744 153.318C224.065 153.318 224.351 153.361 224.602 153.448C224.853 153.535 225.066 153.678 225.239 153.877C225.412 154.076 225.542 154.349 225.629 154.696C225.716 155.034 225.759 155.454 225.759 155.957V160H224.069ZM227.831 153.5H229.521V160H227.831V153.5ZM227.584 151.667C227.584 151.416 227.675 151.203 227.857 151.03C228.048 150.848 228.308 150.757 228.637 150.757C228.966 150.757 229.231 150.848 229.43 151.03C229.638 151.203 229.742 151.416 229.742 151.667C229.742 151.918 229.638 152.131 229.43 152.304C229.231 152.469 228.966 152.551 228.637 152.551C228.308 152.551 228.048 152.469 227.857 152.304C227.675 152.131 227.584 151.918 227.584 151.667ZM235.644 160V156.308C235.644 155.779 235.566 155.398 235.41 155.164C235.263 154.93 235.007 154.813 234.643 154.813C234.323 154.813 234.05 154.908 233.824 155.099C233.608 155.281 233.452 155.511 233.356 155.788V160H231.666V153.5H233.005L233.2 154.358H233.252C233.452 154.081 233.716 153.838 234.045 153.63C234.375 153.422 234.799 153.318 235.319 153.318C235.64 153.318 235.926 153.361 236.177 153.448C236.429 153.535 236.641 153.678 236.814 153.877C236.988 154.076 237.118 154.349 237.204 154.696C237.291 155.034 237.334 155.454 237.334 155.957V160H235.644ZM244.749 160C244.749 160.945 244.494 161.638 243.982 162.08C243.471 162.531 242.756 162.756 241.837 162.756C241.213 162.756 240.719 162.713 240.355 162.626C240 162.539 239.731 162.448 239.549 162.353L239.9 161.014C240.1 161.092 240.329 161.17 240.589 161.248C240.858 161.326 241.187 161.365 241.577 161.365C242.167 161.365 242.565 161.235 242.773 160.975C242.99 160.724 243.098 160.368 243.098 159.909V159.493H243.046C242.743 159.9 242.206 160.104 241.434 160.104C240.594 160.104 239.965 159.844 239.549 159.324C239.142 158.804 238.938 157.989 238.938 156.88C238.938 155.719 239.216 154.839 239.77 154.241C240.325 153.643 241.131 153.344 242.188 153.344C242.743 153.344 243.237 153.383 243.67 153.461C244.112 153.539 244.472 153.63 244.749 153.734V160ZM241.889 158.752C242.219 158.752 242.47 158.678 242.643 158.531C242.825 158.384 242.964 158.163 243.059 157.868V154.943C242.791 154.83 242.457 154.774 242.058 154.774C241.625 154.774 241.287 154.939 241.044 155.268C240.802 155.589 240.68 156.104 240.68 156.815C240.68 157.448 240.784 157.929 240.992 158.258C241.2 158.587 241.499 158.752 241.889 158.752ZM209.907 178.86C209.508 178.444 209.17 177.985 208.893 177.482C208.616 176.988 208.39 176.481 208.217 175.961C208.052 175.432 207.931 174.904 207.853 174.375C207.775 173.838 207.736 173.326 207.736 172.841C207.736 172.364 207.775 171.862 207.853 171.333C207.931 170.804 208.057 170.276 208.23 169.747C208.403 169.21 208.629 168.685 208.906 168.174C209.192 167.663 209.539 167.186 209.946 166.744L211.038 167.446C210.735 167.853 210.479 168.278 210.271 168.72C210.072 169.162 209.907 169.617 209.777 170.085C209.656 170.544 209.565 171.008 209.504 171.476C209.452 171.944 209.426 172.399 209.426 172.841C209.426 173.257 209.456 173.699 209.517 174.167C209.578 174.635 209.673 175.103 209.803 175.571C209.933 176.03 210.102 176.481 210.31 176.923C210.518 177.365 210.769 177.768 211.064 178.132L209.907 178.86ZM212.489 166.9C212.671 166.874 212.875 166.852 213.1 166.835C213.334 166.818 213.572 166.805 213.815 166.796C214.058 166.787 214.292 166.783 214.517 166.783C214.751 166.774 214.959 166.77 215.141 166.77C215.947 166.77 216.636 166.883 217.208 167.108C217.78 167.333 218.244 167.65 218.599 168.057C218.954 168.464 219.214 168.95 219.379 169.513C219.544 170.076 219.626 170.696 219.626 171.372C219.626 171.987 219.548 172.581 219.392 173.153C219.236 173.725 218.976 174.232 218.612 174.674C218.248 175.116 217.767 175.471 217.169 175.74C216.58 176.009 215.847 176.143 214.972 176.143C214.833 176.143 214.647 176.139 214.413 176.13C214.188 176.121 213.949 176.108 213.698 176.091C213.455 176.082 213.221 176.069 212.996 176.052C212.771 176.043 212.602 176.03 212.489 176.013V166.9ZM215.284 168.356C215.093 168.356 214.898 168.36 214.699 168.369C214.508 168.378 214.365 168.391 214.27 168.408V174.505C214.305 174.514 214.361 174.522 214.439 174.531C214.526 174.531 214.617 174.535 214.712 174.544C214.807 174.544 214.898 174.548 214.985 174.557C215.072 174.557 215.137 174.557 215.18 174.557C215.683 174.557 216.099 174.47 216.428 174.297C216.766 174.115 217.03 173.877 217.221 173.582C217.42 173.287 217.559 172.949 217.637 172.568C217.715 172.178 217.754 171.779 217.754 171.372C217.754 171.017 217.719 170.661 217.65 170.306C217.581 169.942 217.451 169.617 217.26 169.331C217.078 169.045 216.827 168.811 216.506 168.629C216.185 168.447 215.778 168.356 215.284 168.356ZM227.165 176H221.406V166.9H223.187V174.414H227.165V176ZM229.091 166.744C229.489 167.16 229.827 167.619 230.105 168.122C230.382 168.616 230.603 169.127 230.768 169.656C230.941 170.176 231.067 170.705 231.145 171.242C231.223 171.771 231.262 172.278 231.262 172.763C231.262 173.24 231.223 173.742 231.145 174.271C231.067 174.8 230.941 175.333 230.768 175.87C230.594 176.399 230.365 176.919 230.079 177.43C229.801 177.941 229.459 178.418 229.052 178.86L227.96 178.145C228.28 177.712 228.545 177.27 228.753 176.819C228.961 176.377 229.125 175.931 229.247 175.48C229.368 175.021 229.45 174.566 229.494 174.115C229.546 173.656 229.572 173.205 229.572 172.763C229.572 172.347 229.537 171.909 229.468 171.45C229.407 170.982 229.312 170.518 229.182 170.059C229.052 169.591 228.883 169.14 228.675 168.707C228.475 168.265 228.233 167.858 227.947 167.485L229.091 166.744Z" fill="white"/>
<defs>
<linearGradient id="paint0_linear_1282_22972" x1="0" y1="220" x2="187.79" y2="-114.608" gradientUnits="userSpaceOnUse">
<stop stop-color="#45D1A6"/>
<stop offset="0.526042" stop-color="#538CFF"/>
<stop offset="1" stop-color="#C448FD"/>
</linearGradient>
<linearGradient id="paint1_linear_1282_22972" x1="196" y1="10" x2="123.5" y2="197.5" gradientUnits="userSpaceOnUse">
<stop stop-color="#538CFF"/>
<stop offset="1" stop-color="#2960CE"/>
</linearGradient>
<linearGradient id="paint2_linear_1282_22972" x1="208.5" y1="62" x2="150.5" y2="203.5" gradientUnits="userSpaceOnUse">
<stop stop-color="#45D1A6"/>
<stop offset="1" stop-color="#2CB88D"/>
</linearGradient>
<linearGradient id="paint3_linear_1282_22972" x1="219.5" y1="119" x2="193.5" y2="202" gradientUnits="userSpaceOnUse">
<stop stop-color="#934DFC"/>
<stop offset="1" stop-color="#7129DD"/>
</linearGradient>
</defs>
</svg>
